<svg width="48" height="37" viewBox="0 0 48 37" fill="none" xmlns="http://www.w3.org/2000/svg">
<path d="M38.5494 10.112C38.2459 14.4157 35.1214 17.7311 31.7141 17.7311C28.3068 17.7311 25.177 14.4168 24.8788 10.112C24.5681 5.63478 27.6098 2.49298 31.7141 2.49298C35.8184 2.49298 38.8601 5.71626 38.5494 10.112Z" stroke="#1270D4" stroke-width="3.5" stroke-linecap="round" stroke-linejoin="round"/>
<path d="M31.7139 23.8263C25.1623 23.8263 18.862 26.9092 17.2836 32.913C17.0745 33.7073 17.6003 34.493 18.4619 34.493H44.967C45.8286 34.493 46.3514 33.7073 46.1453 32.913C44.5669 26.813 38.2666 23.8263 31.7139 23.8263Z" stroke="#1270D4" stroke-width="3.5" stroke-miterlimit="10"/>
<path d="M18.7452 11.6294C18.5105 15.0427 16.0648 17.7309 13.4285 17.7309C10.7923 17.7309 8.34257 15.0438 8.11185 11.6294C7.87209 8.07839 10.2526 5.54047 13.4285 5.54047C16.6045 5.54047 18.985 8.14355 18.7452 11.6294Z" stroke="#1270D4" stroke-width="3.5" stroke-linecap="round" stroke-linejoin="round"/>
<path d="M18.7619 23.4727C17.0232 22.6274 15.1082 22.3024 13.0786 22.3024C8.06956 22.3024 3.24356 24.9446 2.03466 30.0909C1.87572 30.7717 2.27836 31.4452 2.93724 31.4452H13.7529" stroke="#1270D4" stroke-width="3.5" stroke-miterlimit="10" stroke-linecap="round"/>
</svg>
