<svg width="47" height="42" viewBox="0 0 47 42" fill="none" xmlns="http://www.w3.org/2000/svg">
<path d="M25.0402 11.6351L23.0579 6.50836L21.1865 11.6351H15.1284L20.0289 14.5437L18.1574 19.5098L23.0579 16.7619L27.9583 19.5098L26.0869 14.5437L30.9873 11.6351H25.0402Z" fill="#1270D4"/>
<path d="M41.2161 5.67902L40.8991 5.67068V2.20202C40.8991 1.25819 40.0115 0.493103 38.9167 0.493103H7.19883C6.10398 0.493103 5.21647 1.25819 5.21647 2.20202V5.66993L4.83974 5.67969C1.79747 5.67902 0.0898438 7.93583 0.0898438 10.6144V16.493C0.0898438 19.5791 1.17459 22.4738 4.24706 24.0614L4.59717 24.2043L9.77746 25.8052C11.7801 27.761 14.3131 29.3231 17.1106 30.2647V32.9626H15.6853C12.0926 32.9626 9.1811 35.4725 9.1811 38.5695V39.7982C9.1811 40.7421 10.0686 41.5071 11.1635 41.5071H34.9519C36.0467 41.5071 36.9342 40.7421 36.9342 39.7982V38.5695C36.9342 35.4725 34.0227 32.9626 30.4301 32.9626H29.0049V30.2647C31.8023 29.3231 34.3354 27.761 36.338 25.8052L41.5182 24.2043L41.8684 24.0614C44.9408 22.4739 46.1902 19.5792 46.1902 16.493V10.6144C46.1903 7.93583 44.3181 5.67902 41.2161 5.67902ZM6.13128 21.0475C4.34318 20.0608 3.23429 18.3251 3.23429 16.493V10.6144C3.23429 9.7972 4.01882 9.09686 4.89946 9.09686H6.13128V15.9195C6.13128 17.7193 6.42941 20.1676 7.19883 21.8204L6.13128 21.0475ZM32.9011 39.0463H13.2143C12.3941 37.4057 13.6433 35.7652 14.8549 35.7652H18.9563H27.1591H31.2605C32.4721 35.7652 34.5416 37.4057 32.9011 39.0463ZM26.3388 30.8435V33.3043H20.5969V30.8435C21.0843 30.8972 22.0539 31.2315 22.5477 31.2456C22.5549 31.2459 22.5621 31.2462 22.5692 31.2464C22.7318 31.2508 22.8947 31.2536 23.0578 31.2536C23.209 31.2536 23.3601 31.2516 23.511 31.2477C23.6478 31.2445 23.7849 31.239 23.9219 31.2327L23.9298 31.2324C24.2994 31.2154 25.9682 30.8816 26.3388 30.8435ZM23.7445 27.8179C23.7211 27.8189 23.6978 27.8199 23.6743 27.8209C23.5917 27.8248 23.509 27.828 23.4263 27.8303C23.3032 27.8335 23.1803 27.8358 23.0578 27.8358C22.9221 27.8358 22.7858 27.8334 22.6489 27.8288C22.644 27.8286 22.6391 27.8284 22.6342 27.8282C21.6656 27.7944 20.6703 27.6456 19.6527 27.3875C19.5689 27.3663 19.485 27.3503 19.4015 27.3387C13.7804 25.8128 9.1812 20.9886 9.1812 15.9195L9.1811 2.95395H36.9342L36.9343 15.9195C36.9343 21.8595 30.619 27.4636 23.7445 27.8179ZM42.8812 16.493C42.8812 18.3251 41.7722 20.0608 39.9842 21.0475L38.9167 21.8204C39.686 20.1676 40.4811 17.7193 40.4811 15.9195V9.09686L41.1563 9.09602C42.0968 9.09677 42.8813 9.7972 42.8813 10.6144L42.8812 16.493Z" fill="#1270D4"/>
</svg>
