<svg width="46" height="41" viewBox="0 0 46 41" fill="none" xmlns="http://www.w3.org/2000/svg">
<path d="M32.918 1.49298C37.0909 1.49305 40.6545 3.20377 42.4463 4.24786L42.7803 4.44708C43.6993 5.00696 44.1904 6.03244 44.1904 7.08185V36.6072C44.1904 38.3315 42.4644 39.2567 41.1445 38.6922L41.0176 38.6336C39.2688 37.7376 36.2926 36.5409 32.918 36.5408C29.2537 36.5408 26.0649 37.9508 24.416 38.8445L23.8066 39.1902C23.1539 39.579 22.3531 39.5926 21.6904 39.2332L21.5596 39.157C20.2101 38.2983 16.6452 36.3289 12.4629 36.3289C9.33413 36.329 6.54547 37.431 4.76465 38.3543L4.42188 38.5369C3.75674 38.8983 3.01927 38.8498 2.43359 38.5555L2.31836 38.493C1.7097 38.1406 1.19058 37.447 1.19043 36.533V7.08185L1.19629 6.88556C1.24967 5.97147 1.6757 5.09682 2.43262 4.55743L2.60059 4.44708C4.25468 3.43936 8.01204 1.49306 12.4629 1.49298C15.3017 1.49298 17.8534 2.28417 19.749 3.11115L20.1191 3.27716C20.7455 3.56443 21.2947 3.85189 21.752 4.11017L22.1777 4.35724L22.6904 4.66388L23.2031 4.35724C23.5975 4.12178 24.0889 3.84748 24.6621 3.56329L25.2617 3.27716C27.1887 2.39357 29.8898 1.49298 32.918 1.49298ZM21.6445 6.59845L21.1572 6.30743C20.8042 6.09665 20.3609 5.8475 19.8408 5.58966L19.2959 5.3299C17.5295 4.51991 15.1166 3.72736 12.4629 3.72736C8.64784 3.72743 5.34523 5.36526 3.76855 6.30646L3.28125 6.59747V36.5877L4.70312 35.9266C6.6529 35.0201 9.39339 34.0946 12.4629 34.0945C15.5197 34.0945 18.258 35.0128 20.2236 35.9266L21.6445 36.5877V6.59845ZM42.0996 6.59747L41.6123 6.30646C40.0356 5.36528 36.7332 3.72743 32.918 3.72736C30.5961 3.72736 28.4587 4.3347 26.7773 5.02911L26.085 5.3299C25.5154 5.59111 25.0174 5.85207 24.6055 6.08478L24.2236 6.30743L23.7363 6.59845V36.6522L25.1377 36.0379C27.1004 35.1777 29.8488 34.3065 32.918 34.3065C35.999 34.3065 38.7496 35.1837 40.6982 36.0379L42.0996 36.6531V6.59747Z" fill="black" stroke="#1270D4" stroke-width="2"/>
</svg>
