<svg width="47" height="42" viewBox="0 0 47 42" fill="none" xmlns="http://www.w3.org/2000/svg">
<path fill-rule="evenodd" clip-rule="evenodd" d="M38.4349 38.5858H7.07303C5.39471 38.5858 4.72125 36.7031 5.35425 35.3299C8.2913 28.9803 15.1917 23.9796 23.2291 23.9796C31.2691 23.9796 38.1687 28.9803 41.1058 35.3299C41.7388 36.7031 40.1132 38.5858 38.4349 38.5858ZM12.7752 12.4894C12.7752 7.76366 17.881 3.53102 23.2288 3.53102C28.579 3.53102 33.6831 7.76366 33.6831 12.4894C33.6831 17.2152 28.5794 22.0321 23.2291 22.0321C17.8813 22.0321 12.7752 17.2152 12.7752 12.4894ZM46.0378 37.4165C44.2746 30.2207 39.6045 24.91 32.3455 22.5C36.1921 19.7644 38.4355 15.3406 37.6109 10.497C36.6553 4.87795 31.5182 1.26524 25.1299 0.609719C16.3115 -0.296447 8.67693 4.88235 8.67693 12.4894C8.67693 16.5383 10.8015 20.1457 14.1145 22.5C6.8531 24.91 2.18615 30.2207 0.420523 37.4165C-0.219758 40.0321 1.19272 41.507 4.22193 41.507H23.2291H42.2363C45.268 41.507 46.6805 40.0321 46.0378 37.4165Z" fill="#1270D4"/>
</svg>
